<svg width="16" height="16" viewBox="0 0 16 16" fill="none" xmlns="http://www.w3.org/2000/svg">
<path d="M12.1667 15.5C10.7885 15.4988 9.43193 15.1582 8.21667 14.5083L7.84167 14.3C5.25063 12.9069 3.12641 10.7827 1.73333 8.19165L1.525 7.81665C0.858187 6.59446 0.50594 5.22556 0.500001 3.83331V3.27498C0.499649 2.83078 0.676634 2.40481 0.991667 2.09165L2.4 0.683314C2.53677 0.545479 2.72984 0.479043 2.92247 0.50353C3.11509 0.528016 3.2854 0.640643 3.38333 0.808314L5.25833 4.02498C5.44794 4.35239 5.39319 4.76644 5.125 5.03331L3.55 6.60831C3.4192 6.73768 3.38872 6.93751 3.475 7.09998L3.76667 7.64998C4.8142 9.59036 6.40772 11.181 8.35 12.225L8.9 12.525C9.06248 12.6113 9.26231 12.5808 9.39167 12.45L10.9667 10.875C11.2335 10.6068 11.6476 10.552 11.975 10.7416L15.1917 12.6166C15.3593 12.7146 15.472 12.8849 15.4965 13.0775C15.5209 13.2701 15.4545 13.4632 15.3167 13.6L13.9083 15.0083C13.5952 15.3233 13.1692 15.5003 12.725 15.5H12.1667Z" fill="white"/>
</svg>
