<svg width="16" height="16" viewBox="0 0 16 16" fill="none" xmlns="http://www.w3.org/2000/svg">
<path d="M12.0187 15.5C10.6406 15.4988 9.28398 15.1582 8.06872 14.5083L7.69372 14.3C5.10268 12.9069 2.97846 10.7827 1.58538 8.19165L1.37705 7.81665C0.710238 6.59446 0.357991 5.22556 0.352051 3.83331V3.27498C0.351699 2.83078 0.528685 2.40481 0.843718 2.09165L2.25205 0.683314C2.38882 0.545479 2.58189 0.479043 2.77452 0.50353C2.96714 0.528016 3.13745 0.640643 3.23538 0.808314L5.11038 4.02498C5.29999 4.35239 5.24524 4.76644 4.97705 5.03331L3.40205 6.60831C3.27125 6.73768 3.24077 6.93751 3.32705 7.09998L3.61872 7.64998C4.66625 9.59036 6.25977 11.181 8.20205 12.225L8.75205 12.525C8.91453 12.6113 9.11436 12.5808 9.24372 12.45L10.8187 10.875C11.0856 10.6068 11.4996 10.552 11.8271 10.7416L15.0437 12.6166C15.2114 12.7146 15.324 12.8849 15.3485 13.0775C15.373 13.2701 15.3066 13.4632 15.1687 13.6L13.7604 15.0083C13.4472 15.3233 13.0213 15.5003 12.5771 15.5H12.0187Z" fill="#323232"/>
</svg>
